<svg width="16" height="16" viewBox="0 0 16 16" fill="none" xmlns="http://www.w3.org/2000/svg">
<path d="M13.6667 4.85333V3.33333C13.6667 2.6 13.0667 2 12.3334 2H3.00008C2.26008 2 1.66675 2.6 1.66675 3.33333V12.6667C1.66675 13.4 2.26008 14 3.00008 14H12.3334C13.0667 14 13.6667 13.4 13.6667 12.6667V11.1467C14.0601 10.9133 14.3334 10.4933 14.3334 10V6C14.3334 5.50667 14.0601 5.08667 13.6667 4.85333ZM13.0001 6V10H8.33341V6H13.0001ZM3.00008 12.6667V3.33333H12.3334V4.66667H8.33341C7.60008 4.66667 7.00008 5.26667 7.00008 6V10C7.00008 10.7333 7.60008 11.3333 8.33341 11.3333H12.3334V12.6667H3.00008Z" fill="white"/>
<path d="M10.3334 9C10.8857 9 11.3334 8.55228 11.3334 8C11.3334 7.44772 10.8857 7 10.3334 7C9.78113 7 9.33341 7.44772 9.33341 8C9.33341 8.55228 9.78113 9 10.3334 9Z" fill="white"/>
</svg>
