<svg width="1440" height="1024" viewBox="0 0 1440 1024" fill="none" xmlns="http://www.w3.org/2000/svg">
<g clip-path="url(#clip0_202_671)">
<rect width="1440" height="1024" fill="#212121"/>
<g clip-path="url(#clip1_202_671)" filter="url(#filter0_f_202_671)">
<path d="M-8.69429 436.858C6.2301 450.552 14.6359 468.725 6.381 489.573C-3.1908 513.797 -13.8967 538.35 -43.1367 546.051C-46.1625 546.849 -48.8308 549.231 -51.4603 551.178C-67.4701 562.951 -77.3994 555.938 -84.0318 537.518C-89.1567 523.303 -89.6393 507.443 -92.173 492.302C-95.7102 471.076 -98.7492 449.759 -102.86 428.643C-105.77 413.689 -110.257 399.059 -113.556 384.182C-114.141 381.574 -113.313 377.401 -111.504 375.725C-90.9085 356.864 -66.7406 343.939 -39.5099 338.777C-13.221 333.79 7.33731 354.921 4.5206 381.779C3.54836 391.086 2.67709 400.502 0.529082 409.578C-1.6108 418.532 -5.3064 427.121 -8.66031 436.865L-8.69429 436.858ZM-30.9972 367.869C-46.5711 376.487 -60.3682 383.919 -73.8303 391.865C-75.6124 392.908 -76.7158 396.703 -76.5583 399.15C-75.8006 411.608 -74.5179 424.018 -73.4267 436.493C-45.672 431.371 -29.7099 400.67 -30.9972 367.869ZM-57.1669 520.816C-37.7304 503.91 -30.5091 482.915 -20.1658 464.195C-17.1511 458.745 -22.8353 455.326 -27.6407 457.576C-38.6417 462.777 -49.1097 469.066 -59.5302 475.383C-60.9768 476.266 -61.4783 479.816 -61.2777 482.059C-60.2458 493.723 -58.8392 505.378 -57.1464 520.802L-57.1669 520.816Z" fill="#141414"/>
<path d="M294.053 309.863C281.075 316.527 268.67 324.927 254.98 329.418C237.954 334.996 224.072 323.758 224.005 306.015C223.907 284.131 225.158 262.248 225.04 240.377C225.017 236.202 222.307 231.14 219.248 228.062C209.067 217.873 210.142 204.719 223.344 198.759C241.433 190.584 259.738 182.649 278.522 176.307C300.663 168.863 327.523 176.543 338.917 191.745C356.77 215.517 357.152 237.567 343.673 262.227C331.916 283.771 313.777 297.224 294.066 309.884L294.053 309.863ZM261.061 285.343C274.292 276.727 285.278 271.009 294.536 263.222C308.159 251.743 317.243 236.714 320.302 218.957C320.826 215.891 317.139 209.736 314.207 208.832C297.46 203.68 282.621 212.346 267.287 217.057C266.091 217.426 264.728 219.427 264.646 220.74C263.396 241.275 262.323 261.812 261.061 285.343Z" fill="#141414"/>
<path d="M103.197 367.717C101.428 389.03 100.044 408.098 98.1149 427.141C97.7637 430.652 95.5759 436.472 93.5225 436.783C88.6922 437.555 80.6503 437.4 78.863 434.52C73.2194 425.449 65.8091 414.744 66.3425 405.078C68.1413 372.202 72.4725 339.434 77.0951 306.799C78.7765 294.892 83.5597 283.338 87.7965 271.935C91.3112 262.438 98.953 259.278 108.605 262.311C135.674 270.851 160.226 282.906 173.856 309.955C181.857 325.843 190.269 341.551 198.051 357.551C202.022 365.719 200.097 374.328 191.589 376.967C183.273 379.54 172.039 382.314 166.46 371.676C161.662 362.553 157.453 361.894 148.502 366.463C134.319 373.706 119.193 380.538 103.204 367.683L103.197 367.717ZM116.971 294.957C115.534 295.541 114.084 296.104 112.647 296.688C109.98 312.256 107.299 327.803 104.652 343.357C105.794 344.167 106.95 344.996 108.092 345.806C119.458 340.221 130.824 334.636 144.286 328.039C134.336 315.999 125.677 305.492 116.984 294.978L116.971 294.957Z" fill="#141414"/>
<path d="M20.64 610.332C34.5039 592.923 48.0631 577.881 59.1472 561.199C65.468 551.691 71.364 547.471 81.8728 551.909C90.9986 555.754 96.19 568.226 91.0664 577.862C85.2337 588.839 77.2949 598.697 70.0811 608.904C67.1138 613.122 63.6531 616.987 59.9316 621.666C71.0955 627.876 81.2487 633.073 90.9311 638.987C103.367 646.566 107.485 656.309 103.889 667.616C100.35 678.741 96.0531 680.602 85.8816 674.567C73.6462 667.297 61.7162 659.506 49.5918 652.047C46.2157 649.967 42.6319 648.198 35.8069 644.467C38.6167 662.417 40.6005 677.388 43.4169 692.198C46.3224 707.594 38.0414 714.452 22.4017 710.864C9.37108 707.863 4.77315 699.722 3.40243 687.897C1.53921 671.851 -0.958531 656.541 -8.312 641.199C-15.6387 625.898 -16.9387 607.522 -19.7427 590.301C-21.1282 581.739 -6.07161 574.981 2.70296 581.076C8.92212 585.407 13.1879 592.768 17.7432 599.178C19.4005 601.498 19.3622 605.039 20.674 610.339L20.64 610.332Z" fill="#141414"/>
<path d="M261.42 580.096C257.226 582.564 253.264 585.525 248.81 587.37C241.161 590.563 235.931 588.607 228.529 582.819C204.857 564.331 210.145 537.534 205.465 513.652C202.974 500.916 202.557 487.767 200.141 475.012C198.576 466.713 199.822 461.652 208.686 459.426C218.896 456.88 228.814 452.941 239.114 450.893C263.985 445.979 284.712 457.829 293.48 481.509C305.869 514.934 298.365 557.093 261.42 580.096ZM245.247 545.854C246.85 546.246 248.446 546.672 250.049 547.064C256.034 535.87 263.716 525.212 267.399 513.32C269.714 505.805 268.988 492.36 264.291 488.972C258.702 484.934 247.395 488.81 238.576 489.396C238.017 489.437 237.508 490.501 236.625 491.486C239.476 509.409 242.351 527.638 245.26 545.874L245.247 545.854Z" fill="#141414"/>
<path d="M397.499 442.578C391.576 441.131 386.082 440.254 380.919 438.401C369.521 434.307 357.986 430.362 347.055 425.231C329.071 416.782 327.514 396.347 331.835 382.193C340.674 353.288 365.942 334.314 395.515 334.864C410.646 335.15 421.909 354.247 414.173 367.431C412.591 370.131 407.704 371.086 404.175 372.417C391.763 377.071 379.073 381.027 366.994 386.373C363.292 388.022 361.178 393.325 356.517 399.261C366.382 401.452 373.29 403.781 380.339 404.436C414.053 407.565 426.028 438.915 424.715 460.838C423.941 473.913 397.461 494.673 380.564 495.948C377.319 496.185 374.03 496.129 370.763 495.971C351.676 495.009 347.896 490.555 349.1 469.904C367.612 466.699 387.008 464.266 397.472 442.536L397.499 442.578Z" fill="#141414"/>
<path d="M143.864 613.807C141.082 598.916 139.055 587.343 136.707 575.862C133.938 562.34 130.95 548.843 127.847 535.392C125.544 525.376 130.682 516.257 140.27 513.882C149.182 511.683 161.363 518.284 162.888 527.196C166.5 548.402 169.444 569.752 172.599 591.022C173.018 593.826 172.474 596.905 173.428 599.449C176.209 606.78 176.462 614.908 168.278 616.516C160.463 618.059 151.74 614.832 143.871 613.773L143.864 613.807Z" fill="#141414"/>
</g>
<g clip-path="url(#clip2_202_671)" filter="url(#filter1_f_202_671)">
<path d="M961.306 1123.86C976.23 1137.55 984.636 1155.73 976.381 1176.57C966.809 1200.8 956.103 1225.35 926.863 1233.05C923.837 1233.85 921.169 1236.23 918.54 1238.18C902.53 1249.95 892.601 1242.94 885.968 1224.52C880.843 1210.3 880.361 1194.44 877.827 1179.3C874.29 1158.08 871.251 1136.76 867.14 1115.64C864.23 1100.69 859.743 1086.06 856.444 1071.18C855.859 1068.57 856.687 1064.4 858.496 1062.73C879.092 1043.86 903.259 1030.94 930.49 1025.78C956.779 1020.79 977.337 1041.92 974.521 1068.78C973.548 1078.09 972.677 1087.5 970.529 1096.58C968.389 1105.53 964.694 1114.12 961.34 1123.87L961.306 1123.86ZM939.003 1054.87C923.429 1063.49 909.632 1070.92 896.17 1078.86C894.388 1079.91 893.284 1083.7 893.442 1086.15C894.199 1098.61 895.482 1111.02 896.573 1123.49C924.328 1118.37 940.29 1087.67 939.003 1054.87ZM912.833 1207.82C932.27 1190.91 939.491 1169.92 949.834 1151.2C952.849 1145.75 947.165 1142.33 942.359 1144.58C931.358 1149.78 920.89 1156.07 910.47 1162.38C909.023 1163.27 908.522 1166.82 908.722 1169.06C909.754 1180.72 911.161 1192.38 912.854 1207.8L912.833 1207.82Z" fill="#141414"/>
<path d="M1264.05 996.863C1251.07 1003.53 1238.67 1011.93 1224.98 1016.42C1207.95 1022 1194.07 1010.76 1194 993.015C1193.91 971.131 1195.16 949.248 1195.04 927.377C1195.02 923.202 1192.31 918.14 1189.25 915.062C1179.07 904.872 1180.14 891.719 1193.34 885.759C1211.43 877.584 1229.74 869.649 1248.52 863.307C1270.66 855.863 1297.52 863.543 1308.92 878.745C1326.77 902.517 1327.15 924.567 1313.67 949.226C1301.92 970.771 1283.78 984.224 1264.07 996.884L1264.05 996.863ZM1231.06 972.343C1244.29 963.727 1255.28 958.009 1264.54 950.222C1278.16 938.743 1287.24 923.714 1290.3 905.957C1290.83 902.891 1287.14 896.736 1284.21 895.832C1267.46 890.679 1252.62 899.346 1237.29 904.057C1236.09 904.426 1234.73 906.427 1234.65 907.74C1233.4 928.275 1232.32 948.811 1231.06 972.343Z" fill="#141414"/>
<path d="M1073.2 1054.72C1071.43 1076.03 1070.04 1095.1 1068.11 1114.14C1067.76 1117.65 1065.58 1123.47 1063.52 1123.78C1058.69 1124.56 1050.65 1124.4 1048.86 1121.52C1043.22 1112.45 1035.81 1101.74 1036.34 1092.08C1038.14 1059.2 1042.47 1026.43 1047.1 993.799C1048.78 981.892 1053.56 970.338 1057.8 958.935C1061.31 949.438 1068.95 946.278 1078.61 949.311C1105.67 957.851 1130.23 969.906 1143.86 996.955C1151.86 1012.84 1160.27 1028.55 1168.05 1044.55C1172.02 1052.72 1170.1 1061.33 1161.59 1063.97C1153.27 1066.54 1142.04 1069.31 1136.46 1058.68C1131.66 1049.55 1127.45 1048.89 1118.5 1053.46C1104.32 1060.71 1089.19 1067.54 1073.2 1054.68L1073.2 1054.72ZM1086.97 981.957C1085.53 982.541 1084.08 983.104 1082.65 983.688C1079.98 999.256 1077.3 1014.8 1074.65 1030.36C1075.79 1031.17 1076.95 1032 1078.09 1032.81C1089.46 1027.22 1100.82 1021.64 1114.29 1015.04C1104.34 1003 1095.68 992.492 1086.98 981.978L1086.97 981.957Z" fill="#141414"/>
<path d="M1367.5 1129.58C1361.58 1128.13 1356.08 1127.25 1350.92 1125.4C1339.52 1121.31 1327.99 1117.36 1317.06 1112.23C1299.07 1103.78 1297.51 1083.35 1301.83 1069.19C1310.67 1040.29 1335.94 1021.31 1365.52 1021.86C1380.65 1022.15 1391.91 1041.25 1384.17 1054.43C1382.59 1057.13 1377.7 1058.09 1374.17 1059.42C1361.76 1064.07 1349.07 1068.03 1336.99 1073.37C1333.29 1075.02 1331.18 1080.33 1326.52 1086.26C1336.38 1088.45 1343.29 1090.78 1350.34 1091.44C1384.05 1094.57 1396.03 1125.91 1394.72 1147.84C1393.94 1160.91 1367.46 1181.67 1350.56 1182.95C1347.32 1183.19 1344.03 1183.13 1340.76 1182.97C1321.68 1182.01 1317.9 1177.56 1319.1 1156.9C1337.61 1153.7 1357.01 1151.27 1367.47 1129.54L1367.5 1129.58Z" fill="#141414"/>
</g>
</g>
<defs>
<filter id="filter0_f_202_671" x="-201.9" y="89.1" width="719.411" height="667.086" filterUnits="userSpaceOnUse" color-interpolation-filters="sRGB">
<feFlood flood-opacity="0" result="BackgroundImageFix"/>
<feBlend mode="normal" in="SourceGraphic" in2="BackgroundImageFix" result="shape"/>
<feGaussianBlur stdDeviation="11.95" result="effect1_foregroundBlur_202_671"/>
</filter>
<filter id="filter1_f_202_671" x="790.3" y="798.3" width="675.01" height="622.686" filterUnits="userSpaceOnUse" color-interpolation-filters="sRGB">
<feFlood flood-opacity="0" result="BackgroundImageFix"/>
<feBlend mode="normal" in="SourceGraphic" in2="BackgroundImageFix" result="shape"/>
<feGaussianBlur stdDeviation="0.85" result="effect1_foregroundBlur_202_671"/>
</filter>
<clipPath id="clip0_202_671">
<rect width="1440" height="1024" fill="white"/>
</clipPath>
<clipPath id="clip1_202_671">
<rect width="555.977" height="376.97" fill="white" transform="translate(-178 416.389) rotate(-33.0716)"/>
</clipPath>
<clipPath id="clip2_202_671">
<rect width="555.977" height="376.97" fill="white" transform="translate(792 1103.39) rotate(-33.0716)"/>
</clipPath>
</defs>
</svg>
