<svg width="16" height="16" viewBox="0 0 16 16" fill="none" xmlns="http://www.w3.org/2000/svg">
<path d="M10.651 9.64771H10.1243L9.93768 9.46771C10.7377 8.53438 11.151 7.26105 10.9243 5.90772C10.611 4.05438 9.06434 2.57438 7.19768 2.34772C4.37768 2.00105 2.00434 4.37438 2.35101 7.19438C2.57768 9.06105 4.05768 10.6077 5.91101 10.921C7.26434 11.1477 8.53768 10.7344 9.47101 9.93438L9.65101 10.121V10.6477L12.4843 13.481C12.7577 13.7544 13.2043 13.7544 13.4777 13.481C13.751 13.2077 13.751 12.761 13.4777 12.4877L10.651 9.64771ZM6.65101 9.64771C4.99101 9.64771 3.65101 8.30771 3.65101 6.64772C3.65101 4.98772 4.99101 3.64772 6.65101 3.64772C8.31101 3.64772 9.65101 4.98772 9.65101 6.64772C9.65101 8.30771 8.31101 9.64771 6.65101 9.64771Z" fill="white"/>
</svg>
