<svg width="16" height="16" viewBox="0 0 16 16" fill="none" xmlns="http://www.w3.org/2000/svg">
<g clip-path="url(#clip0_201_69)">
<path fill-rule="evenodd" clip-rule="evenodd" d="M8 15.2889C12.0255 15.2889 15.2889 12.0255 15.2889 8C15.2889 3.97446 12.0255 0.711111 8 0.711111C3.97446 0.711111 0.711111 3.97446 0.711111 8C0.711111 12.0255 3.97446 15.2889 8 15.2889ZM16 8C16 12.4183 12.4183 16 8 16C3.58172 16 0 12.4183 0 8C0 3.58172 3.58172 0 8 0C12.4183 0 16 3.58172 16 8Z" fill="white"/>
<path d="M9.4836 1.99731L9.80627 6.4782L14.1672 7.55554L10.0054 9.24709L10.328 13.728L7.43383 10.2924L3.27206 11.9849L5.6445 8.16976L2.74939 4.7342L7.11028 5.81243L9.4836 1.99731Z" fill="white"/>
</g>
<defs>
<clipPath id="clip0_201_69">
<rect width="16" height="16" fill="white"/>
</clipPath>
</defs>
</svg>
